<svg width="51" height="37" viewBox="0 0 51 37" fill="none" xmlns="http://www.w3.org/2000/svg">
<path fill-rule="evenodd" clip-rule="evenodd" d="M49.1837 21.8783C48.2068 23.1868 2.62993 23.4438 1.10476 22.1498C0.589797 21.7134 0.130613 19.7715 0.0843544 17.8351L9.72053e-08 14.315L23.4694 14.0608C36.3776 13.9205 47.6272 14.0316 48.4694 14.3059C49.6701 14.6978 50 15.4504 50 17.795C50 19.4398 49.6327 21.2769 49.1837 21.8783Z" fill="black"/>
<path fill-rule="evenodd" clip-rule="evenodd" d="M22.8841 5.94192C22.7774 7.17348 44.5102 20.6171 45.8098 20.1239C46.2484 19.9576 47.3218 18.6853 48.1948 17.2967L49.7819 14.7726L38.6443 7.76173C32.5189 3.90536 27.0779 0.713518 26.5537 0.667129C25.806 0.601566 25.3172 1.05055 24.287 2.7481C23.5643 3.93896 22.9332 5.37588 22.8841 5.94192Z" fill="black"/>
<path fill-rule="evenodd" clip-rule="evenodd" d="M27.0283 35.6548C28.0924 36.2833 49.6082 22.5014 49.7254 21.1166C49.7652 20.6494 49.0822 19.1318 48.2079 17.7447L46.6187 15.223L35.4829 22.2334C29.358 26.0888 24.1281 29.6144 23.8596 30.0669C23.4773 30.7126 23.6707 31.3473 24.7556 33.0097C25.5167 34.1759 26.5392 35.3659 27.0283 35.6548Z" fill="black"/>
</svg>
