<svg class="icon" width="100%" height="100%" viewBox="0 0 69 74" fill="none" xmlns="http://www.w3.org/2000/svg">
<path fill-rule="evenodd" clip-rule="evenodd" d="M22.669 1.87792C17.558 3.54492 15.289 5.03892 10.888 9.63192C7.891 12.7609 4.214 17.7959 2.719 20.8209C0.307 25.6989 0 27.4529 0 36.3359C0 45.6329 0.235 46.8299 3.281 53.0209C6.996 60.5749 13.756 67.2929 21.22 70.8509C28.31 74.2299 39.278 74.6669 46.702 71.8649C54.587 68.8899 61.676 62.2399 65.719 54.0269C68.797 47.7759 69 46.7109 69 36.8419C69 27.5639 68.689 25.6569 66.365 20.7009C58.51 3.94892 40.33 -3.88209 22.669 1.87792ZM44.412 7.54292C48.72 8.87092 51.293 10.5699 55.646 14.9619C62.212 21.5879 63.85 25.6089 63.937 35.3209C63.99 41.1549 63.485 43.4039 60.91 48.8209C56.933 57.1839 53.452 61.2339 47.112 64.8699C42.665 67.4209 40.987 67.8029 34.21 67.8119C22.027 67.8259 14.548 62.7569 8.435 50.3409C5.75 44.8869 5.228 42.6969 5.264 37.0339C5.333 25.9829 6.835 22.1119 13.558 15.6579C17.515 11.8599 21.029 9.49092 24.229 8.46292C33.472 5.49392 37.209 5.32292 44.412 7.54292ZM28.941 14.2649C27.154 15.5939 27.119 15.9229 28.5 18.4159C30.635 22.2699 32.949 23.5229 34.916 21.8909C37.161 20.0269 36.948 15.1309 34.566 13.8559C32.015 12.4909 31.252 12.5459 28.941 14.2649ZM29.662 41.9109C29.989 57.4979 30.075 58.0609 32.401 59.9439C33.722 61.0119 35.297 61.7199 35.901 61.5169C36.641 61.2679 37 55.6879 37 44.4459C37 26.4969 36.82 25.8699 31.662 25.8359L29.324 25.8209L29.662 41.9109Z" fill="black"/>
</svg>
