<svg class="icon" width="100%" height="100%" viewBox="0 0 39 74" fill="none" xmlns="http://www.w3.org/2000/svg">
<path fill-rule="evenodd" clip-rule="evenodd" d="M30.225 1.2C28.789 2.636 28.507 69.634 29.927 71.876C30.406 72.633 32.537 73.308 34.662 73.376L38.525 73.5L38.804 39C38.958 20.025 38.836 3.488 38.535 2.25C38.105 0.485 37.279 0 34.706 0C32.901 0 30.885 0.540001 30.225 1.2ZM0.263 37.116L0.525002 73.232L4.484 73.587C6.661 73.782 8.739 73.463 9.1 72.879C9.777 71.783 9.189 4.484 8.483 2.25C8.252 1.521 6.402 1 4.044 1H0L0.263 37.116Z" fill="#b5382f"/>
</svg>
