<svg class="icon" width="100%" height="100%" viewBox="0 0 46 70" fill="none" xmlns="http://www.w3.org/2000/svg">
<path fill-rule="evenodd" clip-rule="evenodd" d="M1.05646e-06 34.531C1.05646e-06 72.945 -0.0219979 72.832 6.283 67.356C8.091 65.785 11.34 63.15 13.503 61.5C18.543 57.655 27.898 49.157 30.292 46.25C31.311 45.013 32.762 44 33.516 44C34.27 44 35.486 43.145 36.218 42.099C36.95 41.054 39.177 39.238 41.167 38.064C45.016 35.793 46.589 32.578 44.666 30.912C44.025 30.357 41.414 28.461 38.865 26.701C36.316 24.94 29.116 19.642 22.865 14.926C8.988 4.456 2.481 0 1.07 0C0.331001 0 1.05646e-06 10.675 1.05646e-06 34.531Z" fill="black"/>
</svg>
