<svg class="icon" width="100%" height="100%" viewBox="0 0 105 93" fill="none" xmlns="http://www.w3.org/2000/svg">
<path fill-rule="evenodd" clip-rule="evenodd" d="M53.3723 3.25005C49.0913 7.65805 35.8953 22.966 33.2903 26.545L31.1633 29.468L16.1913 29.788L1.22028 30.109L0.609278 33.163C-0.410722 38.264 -0.0737221 60.966 1.05428 63.072C2.02428 64.885 3.11228 65.033 14.5033 64.905L26.8973 64.765L42.1003 78.8661C50.4613 86.6221 57.6843 92.968 58.1503 92.968C58.6163 92.968 58.9983 72.043 58.9983 46.468C58.9983 9.91805 58.7313 -0.024953 57.7483 4.69927e-05C57.0613 0.017047 55.0913 1.48005 53.3723 3.25005ZM69.6613 25.788C68.1293 27.48 68.1383 27.743 69.7813 29.538C70.7533 30.599 73.6873 34.262 76.3013 37.678L81.0533 43.887L77.3533 49.178C75.3193 52.087 72.0763 56.144 70.1483 58.193C66.7193 61.835 66.6823 61.961 68.4753 63.943C69.4833 65.057 70.8013 65.955 71.4033 65.939C72.0053 65.922 75.4853 62.136 79.1363 57.525L85.7733 49.141L92.9543 57.055C96.9033 61.407 100.762 64.968 101.531 64.968C103.029 64.968 104.998 61.985 104.998 59.716C104.998 58.954 101.674 55.038 97.6103 51.013L90.2233 43.695L94.6863 37.826C97.1413 34.598 100.015 31.494 101.074 30.928C103.649 29.549 103.509 26.768 100.779 25.064C98.6843 23.755 98.1973 24.072 92.0293 30.754L85.4983 37.83L78.9983 30.905C75.4233 27.096 72.2303 23.977 71.9033 23.974C71.5763 23.971 70.5673 24.787 69.6613 25.788Z" fill="black"/>
</svg>
