<svg class="icon" width="100%" height="100%" viewBox="0 0 102 94" fill="none" xmlns="http://www.w3.org/2000/svg">
<path fill-rule="evenodd" clip-rule="evenodd" d="M47.023 9.25C42.54 14.337 36.325 20.852 33.211 23.726L27.55 28.951L13.775 28.976L0 29L0.275001 45.25L0.55 61.5L13.232 62L25.914 62.5L40.732 77.777C48.882 86.18 56.113 93.042 56.8 93.027C57.782 93.006 58.05 83.019 58.05 46.5C58.05 6.722 57.842 0 56.612 0C55.821 0 51.506 4.163 47.023 9.25ZM83.05 8.567C83.05 8.878 84.11 10.566 85.406 12.317C87.801 15.553 91.263 21.876 92.626 25.5C96.502 35.813 96.962 52.465 93.589 60.346C91.816 64.489 86.017 73.748 82.328 78.327C79.628 81.678 79.481 83.288 81.677 85.484C83.179 86.986 83.468 86.956 85.46 85.084C86.646 83.97 89.731 79.558 92.314 75.279C98.501 65.034 101.19 54.864 101.377 41C101.51 31.121 101.316 30.027 98.104 22.5C94.232 13.426 89.572 8 85.65 8C84.22 8 83.05 8.255 83.05 8.567ZM72.05 16.905C72.05 17.403 73.615 19.684 75.528 21.974C80.477 27.897 84.411 40.623 83.573 48C82.805 54.775 77.997 65.026 74.018 68.374C70.716 71.152 70.29 73.124 72.579 75.024C73.848 76.078 74.567 75.886 76.801 73.897C80.893 70.254 81.874 68.924 84.476 63.5C91.5 48.862 89.602 29.92 80.112 19.945C76.705 16.363 72.05 14.608 72.05 16.905ZM63.511 28.063C63.15 28.648 63.575 29.923 64.457 30.897C66.996 33.703 69.312 42.92 68.805 48.201C68.537 50.988 67.292 54.548 65.791 56.815C64.385 58.94 63.53 61.104 63.892 61.623C65.374 63.749 67.702 62.216 70.271 57.423C75.273 48.089 74.921 36.566 69.435 30.045C66.798 26.912 64.664 26.198 63.511 28.063Z" fill="black"/>
</svg>
