<svg  viewBox="0 0 1920 1080" fill="none" xmlns="http://www.w3.org/2000/svg">
<g id="needs">
<path id="suspend-box" d="M849 331.5H837.5L839 345.5H850.5L849 331.5Z" fill="black"/>
<path id="someone-box" d="M862 422L846.5 424.5L848 437H863.5L862 422Z" fill="black"/>
<path id="savor-box" d="M1104.5 247.5L1088.5 248.5L1090 263H1105.5L1104.5 247.5Z" fill="black"/>
<path id="celebrate-box" d="M1102.5 296L1086 300L1089 313L1105.5 312L1102.5 296Z" fill="black"/>
<path id="later-box" d="M1101.5 341L1089.5 343L1091 357H1104L1101.5 341Z" fill="black"/>
<path id="learn-box" d="M1369 345.5L1356.5 347.5V361.5H1371.5L1369 345.5Z" fill="black"/>
<path id="play-box" d="M1372.5 409.5L1359.5 410.5L1361 426H1375.5L1372.5 409.5Z" fill="black"/>
<path id="heard-box" d="M1362.5 605L1348.5 607L1351.5 622L1365.5 620L1362.5 605Z" fill="black"/>
<path id="snack-box" d="M1358 656L1346.5 657L1348 670L1360.5 670.5L1358 656Z" fill="black"/>
<path id="discharge-box" d="M1362.5 697L1351 701L1353.5 712.5L1364 711.5L1362.5 697Z" fill="black"/>
<path id="sleep-box" d="M1111.5 737L1100 740.5L1101.5 751.5L1113.5 750L1111.5 737Z" fill="black"/>
<path id="cry-box" d="M1108.5 799.5H1098L1100 812H1110.5L1108.5 799.5Z" fill="black"/>
<path id="hug-box" d="M1110.5 842L1100.5 843.5L1103 855H1113L1110.5 842Z" fill="black"/>
<path id="slow-box" d="M833 614L815 616L816 631.5L833 630V614Z" fill="black"/>
<path id="breathing-box" d="M831 655.5L819.5 659L820.5 670.5L832.5 668L831 655.5Z" fill="black"/>
<path id="ground-box" d="M832 717H815L816.5 735.5H834L832 717Z" fill="black"/>
<rect id="ground" aria-label="to ground in the present" x="805" y="707" width="240" height="93" fill="black"/>
<rect id="breathing" aria-label="to focus on my breathing" x="800" y="646" width="245" height="62" fill="black"/>
<rect id="slow" aria-label="to slow down" x="805" y="599" width="240" height="48" fill="black"/>
<rect id="hug" aria-label="a hug or a snuggle" x="1083" y="827" width="218" height="72" fill="black"/>
<rect id="cry" aria-label="to cry" x="1078" y="789" width="223" height="39" fill="black"/>
<rect id="sleep" aria-label="to rest or sleep" x="1078" y="726" width="223" height="64" fill="black"/>
<rect id="discharge" aria-label="to discharge energy" x="1339" y="687" width="237" height="85" fill="black"/>
<rect id="snack" aria-label="a snack" x="1332" y="649" width="244" height="39" fill="black"/>
<rect id="heard" aria-label="to be heard/noticed" x="1332" y="590" width="244" height="60" fill="black"/>
<rect id="play" aria-label="to play" x="1332" y="399" width="250" height="47" fill="black"/>
<rect id="learn" aria-label="to learn more" x="1332" y="328" width="250" height="72" fill="black"/>
<rect id="later" aria-label="to remember this moment for later" x="1078" y="328" width="215" height="57" fill="black"/>
<rect id="celebrate" aria-label="celebrate!" x="1069" y="278" width="234" height="51" fill="black"/>
<rect id="savor" aria-label="savor it" x="1069" y="228" width="234" height="51" fill="black"/>
<rect id="someone" aria-label="to talk to someone" x="831" y="414" width="217" height="74" fill="black"/>
<rect id="suspend" aria-label="to suspend judgement" x="825" y="313" width="227" height="102" fill="black"/>
</g>
</svg>
