<svg viewBox="0 0 1186 961" fill="none" xmlns="http://www.w3.org/2000/svg">
<g id="needs-activities">
<path id="breath-box" d="M54.5 158.5L44 161V170.5L56 168.5L54.5 158.5Z" fill="black"/>
<path id="discharge-purple-box" d="M54.5 212.5L45.5 214.5L46.5 225L54.5 224V212.5Z" fill="black"/>
<path id="calm-box" d="M56.5 264L47 265.5L48 277L58.5 276L56.5 264Z" fill="black"/>
<path id="slow-box" d="M59.5 300.5L47.5 301.5L49 313L60.5 312L59.5 300.5Z" fill="black"/>
<path id="speed-box" d="M61.5 332.5L47.5 334L49 348.5L63 347.5L61.5 332.5Z" fill="black"/>
<path id="ground-box" d="M61.5 370L51.5 371V382H63L61.5 370Z" fill="black"/>
<path id="suspend-box" d="M64.5 612L46.5 614.5L46 633L64.5 632V612Z" fill="black"/>
<path id="talk-box" d="M69 691.5H49.5V707H69V691.5Z" fill="black"/>
<path id="release-box" d="M70 767H51.5L54.5 785.5H72.5L70 767Z" fill="black"/>
<path id="belly-box" d="M77 818L54.5 819.5L56 838.5H78L77 818Z" fill="black"/>
<path id="information-box" d="M458.5 154L448 156.5L450 168L460 167L458.5 154Z" fill="black"/>
<path id="heard-box" d="M459.5 209L447.5 211.5V221L462 220L459.5 209Z" fill="black"/>
<path id="no-box" d="M461 242.5L452 244L453 255.5L462 253.5L461 242.5Z" fill="black"/>
<path id="boundary-box" d="M460.5 275L450 277.5L452 289.5L463.5 288.5L460.5 275Z" fill="black"/>
<path id="discharge-red-box" d="M463 325L453 326L454 336.5H464L463 325Z" fill="black"/>
<path id="glucose-box" d="M460.5 376L449.5 377.5V386.5H461.5L460.5 376Z" fill="black"/>
<path id="savor-box" d="M455.5 660L444 662.5L446 675.5H458L455.5 660Z" fill="black"/>
<path id="celebrate-box" d="M456.5 704L443.5 705L444.5 720L456.5 718.5V704Z" fill="black"/>
<path id="rest-box" d="M458.5 743.5L441 745.5L443 765L459.5 764L458.5 743.5Z" fill="black"/>
<path id="later-box" d="M464.5 798H445L446.5 817.5L467 816.5L464.5 798Z" fill="black"/>
<path id="sleep-box" d="M832 168L820 169.5L821 182H833.5L832 168Z" fill="black"/>
<path id="break-box" d="M830.5 201L823 203.5V215.5H833L830.5 201Z" fill="black"/>
<path id="attention-box" d="M832.5 239H823L825 251.5L834 250L832.5 239Z" fill="black"/>
<path id="touch-box" d="M832 267.5L823.5 269L825 281.5H833.5L832 267.5Z" fill="black"/>
<path id="cry-box" d="M831.5 319.5H824L825 331.5L833 330.5L831.5 319.5Z" fill="black"/>
<path id="remember-box" d="M838 356.5L827.5 357.5L829.5 370L839.5 368L838 356.5Z" fill="black"/>
<path id="nice-box" d="M844 390L835.5 392.5L836.5 401.5L844.5 400.5L844 390Z" fill="black"/>
<path id="share-box" d="M830.5 623L813.5 624.5V641.5L832 640.5L830.5 623Z" fill="black"/>
<path id="play-box" d="M820 664L806.5 667.5L807.5 681L821 682L820 664Z" fill="black"/>
<path id="sing-box" d="M826.5 707L815.5 709L817 723H830L826.5 707Z" fill="black"/>
<path id="write-box" d="M818.5 749.5L798.5 751.5L801.5 772.5L818.5 771V749.5Z" fill="black"/>
<path id="learn-box" d="M815.5 804L793 805.5L794.5 827.5L816.5 825.5L815.5 804Z" fill="black"/>
<path id="make-box" d="M817.5 857L795.5 859.5L798 882L819.5 881.5L817.5 857Z" fill="black"/>
<path id="dance-box" d="M983.5 664.5L969 666L970.5 680.5H984.5L983.5 664.5Z" fill="black"/>
<path id="explore-box" d="M983 710H965.5L968.5 726H983V710Z" fill="black"/>
<path id="action-box" d="M995 749.5H977L978.5 767.5L999.5 769L995 749.5Z" fill="black"/>
<rect id="breath" aria-label="to focus on my breath or change my breathing" x="32" y="142" width="372" height="57" fill="black"/>
<rect id="discharge-purple" aria-label="to discharge energy" x="32" y="198" width="372" height="53" fill="black"/>
<rect id="calm" aria-label="to find a calm place in my mind" x="32" y="250" width="372" height="36" fill="black"/>
<rect id="slow" aria-label="to slow down" x="32" y="285" width="372" height="36" fill="black"/>
<rect id="speed" aria-label="to speed up" x="32" y="320" width="368" height="36" fill="black"/>
<rect id="ground" aria-label="to ground in the present" x="32" y="355" width="368" height="62" fill="black"/>
<rect id="information" aria-label="more information, clarity or understanding" x="422" y="142" width="347" height="51" fill="black"/>
<rect id="heard" aria-label="to be heard/noticed" x="422" y="192" width="347" height="38" fill="black"/>
<rect id="no" aria-label="to say no" x="422" y="229" width="347" height="33" fill="black"/>
<rect id="boundary" aria-label="to set a new boundary" x="422" y="261" width="347" height="41" fill="black"/>
<rect id="discharge-red" aria-label="to discharge energy" x="422" y="301" width="347" height="64" fill="black"/>
<rect id="glucose" aria-label="a snack/more glucose" x="422" y="364" width="347" height="38" fill="black"/>
<rect id="sleep" aria-label="to rest or sleep" x="794" y="156" width="361" height="36" fill="black"/>
<rect id="break" aria-label="to take a break" x="794" y="191" width="361" height="31" fill="black"/>
<rect id="attention" aria-label="to ask for attention" x="794" y="221" width="361" height="37" fill="black"/>
<rect id="touch" aria-label="consensual physical touch" x="794" y="257" width="361" height="54" fill="black"/>
<rect id="cry" aria-label="to cry" x="794" y="310" width="361" height="35" fill="black"/>
<rect id="remember" aria-label="to remember" x="794" y="344" width="361" height="31" fill="black"/>
<rect id="nice" aria-label="to do something nice for myself" x="794" y="374" width="361" height="61" fill="black"/>
<rect id="suspend" aria-label="to suspend judgement" x="32" y="591" width="357" height="85" fill="black"/>
<rect id="talk" aria-label="to talk about/share something causing discomfort" x="32" y="675" width="357" height="77" fill="black"/>
<rect id="release" aria-label="to release something" x="32" y="751" width="357" height="50" fill="black"/>
<rect id="belly" aria-label="to breathe into or engage my belly" x="32" y="800" width="357" height="83" fill="black"/>
<rect id="savor" aria-label="savor it" x="408" y="639" width="344" height="47" fill="black"/>
<rect id="celebrate" aria-label="celebrate!" x="408" y="685" width="344" height="47" fill="black"/>
<rect id="rest" aria-label="rest" x="408" y="731" width="344" height="47" fill="black"/>
<rect id="later" aria-label="remember this moment for later" x="408" y="777" width="344" height="131" fill="black"/>
<rect id="share" aria-label="to share my wisdom" x="778" y="610" width="389" height="44" fill="black"/>
<rect id="learn" aria-label="to learn more" x="778" y="800" width="380" height="47" fill="black"/>
<rect id="make" aria-label="to make something" x="778" y="846" width="380" height="47" fill="black"/>
<rect id="play" aria-label="to play" x="778" y="653" width="180" height="41" fill="black"/>
<rect id="dance" aria-label="to dance" x="957" y="653" width="201" height="41" fill="black"/>
<rect id="sing" aria-label="to sing" x="778" y="693" width="180" height="41" fill="black"/>
<rect id="explore" aria-label="to explore" x="957" y="693" width="201" height="41" fill="black"/>
<rect id="write" aria-label="to write" x="778" y="733" width="180" height="67" fill="black"/>
<rect id="action" aria-label="to take action" x="957" y="733" width="201" height="67" fill="black"/>
</g>
</svg>
