<svg id="needs-checks" viewBox="0 0 1920 1080" fill="none" xmlns="http://www.w3.org/2000/svg">
<g>
<path id="to-breathe-into-my-belly" d="M883 272.5H870L871 288.5L884.5 289L883 272.5Z" fill="black" stroke="black"/>
<path id="to-talk-to-someone" d="M895.5 355L879 357.5V371.5H897L895.5 355Z" fill="black" stroke="black"/>
<path id="to-take-a-deep-breath" d="M858 619.5L845 623.5L846 636.5L859 635L858 619.5Z" fill="black" stroke="black"/>
<path id="to-ground-in-the-present" d="M856 724.5H837L838.5 745.5H858L856 724.5Z" fill="black" stroke="black"/>
<path id="to-rest-or-sleep" d="M1200 764.5L1187.5 768.5L1189.5 780.5L1203 779L1200 764.5Z" fill="black" stroke="black"/>
<path id="to-cry" d="M1197.5 839.5H1185L1186.5 854.5H1200L1197.5 839.5Z" fill="black" stroke="black"/>
<path id="a-hug-or-a-snuggle" d="M1199.5 891.5L1188.5 893L1191 906.5H1202.5L1199.5 891.5Z" fill="black" stroke="black"/>
<path id="a-snack" d="M1505 605L1489.5 607L1492.5 624L1507.5 623L1505 605Z" fill="black" stroke="black"/>
<path id="to-say-no" d="M1500.5 666.5H1487L1488 682L1503 683.5L1500.5 666.5Z" fill="black" stroke="black"/>
<path id="to-discharge-energy" d="M1505.5 716.5L1492.5 720L1495 733H1506.5L1505.5 716.5Z" fill="black" stroke="black"/>
<path id="to-learn-more" d="M1510 365.5H1494.5L1497 384.5H1513.5L1510 365.5Z" fill="black" stroke="black"/>
<path id="to-make-something" d="M1488.5 295V279L1502 275.5L1505.5 295H1488.5Z" fill="black" stroke="black"/>
<path id="savor-it" d="M1183 184H1165.5V200L1184.5 201L1183 184Z" fill="black" stroke="black"/>
<path id="share-it" d="M1180 242L1163 245L1165.5 260H1183.5L1180 242Z" fill="black" stroke="black"/>
<path id="smile" d="M1179.5 297.5H1166L1167.5 314.5H1182.5L1179.5 297.5Z" fill="black" stroke="black"/>
</g>
</svg>
