<svg id="needs" viewBox="0 0 1920 1080" fill="none" xmlns="http://www.w3.org/2000/svg">
<g>
<path id="belly-box" d="M823 274.5H810L811.5 289.5H823V274.5Z" fill="black" stroke="black"/>
<path id="talk-box" d="M833 348L817 350L819 363L834.5 362L833 348Z" fill="black" stroke="black"/>
<path id="breathing-box" d="M799.5 582.5L787.5 586V599L801.5 596.5L799.5 582.5Z" fill="black" stroke="black"/>
<path id="ground-box" d="M799 676.5H780.5V695.5H800.5L799 676.5Z" fill="black" stroke="black"/>
<path id="sleep-box" d="M1104.5 711L1092.5 715.5L1094 726.5L1107 725.5L1104.5 711Z" fill="black" stroke="black"/>
<path id="cry-box" d="M1101.5 778.5H1090.5V792H1104L1101.5 778.5Z" fill="black" stroke="black"/>
<path id="hug-box" d="M1104 824L1093 825.5L1094.5 838L1107 839L1104 824Z" fill="black" stroke="black"/>
<path id="snack-box" d="M1376 570L1360.5 572L1363.5 588L1378 585.5L1376 570Z" fill="black" stroke="black"/>
<path id="no-box" d="M1371 624.5H1358L1360 639.5H1373L1371 624.5Z" fill="black" stroke="black"/>
<path id="discharge-box" d="M1375 669L1363 672.5L1365.5 684.5H1376L1375 669Z" fill="black" stroke="black"/>
<path id="learn-box" d="M1379 357.5H1365.5L1367 374.5H1382.5L1379 357.5Z" fill="black" stroke="black"/>
<path id="make-box" d="M1372 277.5L1360 280V294H1375L1372 277.5Z" fill="black" stroke="black"/>
<path id="savor-box" d="M1097.5 185.5H1081V200.5H1097.5V185.5Z" fill="black" stroke="black"/>
<path id="celebrate-box" d="M1094 237.5L1078.5 240L1080.5 254.5L1098 253L1094 237.5Z" fill="black" stroke="black"/>
<path id="smile-box" d="M1093.5 286.5H1081.5V301.5H1096.5L1093.5 286.5Z" fill="black" stroke="black"/>
<rect id="belly" x="798" y="255" width="242" height="80" fill="black"/>
<rect id="talk" x="798" y="335" width="242" height="80" fill="black"/>
<rect id="savor" x="1062" y="167" width="241" height="50" fill="black"/>
<rect id="smile" x="1062" y="265" width="241" height="50" fill="black"/>
<rect id="celebrate" x="1062" y="216" width="241" height="50" fill="black"/>
<rect id="make" x="1341" y="266" width="270" height="82" fill="black"/>
<rect id="learn" x="1341" y="347" width="266" height="81" fill="black"/>
<rect id="snack" x="1344" y="557" width="263" height="49" fill="black"/>
<rect id="no" x="1344" y="606" width="263" height="50" fill="black"/>
<rect id="discharge" x="1344" y="655" width="263" height="116" fill="black"/>
<rect id="sleep" x="1071" y="693" width="240" height="78" fill="black"/>
<rect id="hug" x="1072" y="816" width="234" height="84" fill="black"/>
<rect id="cry" x="1071" y="770" width="240" height="46" fill="black"/>
<rect id="breathing" x="772" y="566" width="261" height="102" fill="black"/>
<rect id="ground" x="772" y="667" width="261" height="118" fill="black"/>
</g>
</svg>
