<svg id="okay-grey" viewBox="0 0 1150 1121" fill="none" xmlns="http://www.w3.org/2000/svg">
<g id="slices">
<path id="relieved" d="M538 55L431.5 74L536 439L566 435.5L538 55Z" fill="black" stroke="black"/>
<path id="playful" d="M679 60L545.5 53.5L571 434.5L598.5 438L679 60Z" fill="black" stroke="black"/>
<path id="grateful" d="M815.5 105L684.5 61.5L604 439.5L641 453L815.5 105Z" fill="black" stroke="black"/>
<path id="curious" d="M960 204L821 107.5L645.5 454L683 480.5L960 204Z" fill="black" stroke="black"/>
<path id="confident" d="M1057 344L965 208L685.5 484.5L710 514.5L1057 344Z" fill="black" stroke="black"/>
<path id="creative" d="M726 551L712 521L1060 350L1108.5 466.5L726 551Z" fill="black" stroke="black"/>
<path id="challenged" d="M729.5 586L726 557L1109 473.5L1117 598L729.5 586Z" fill="black" stroke="black"/>
<path id="tense" d="M729.5 593L724 624L1089.5 737L1116.5 604L729.5 593Z" fill="black" stroke="black"/>
<path id="frustrated" d="M1026.5 860L1087 742.5L723.5 629L707.5 663L1026.5 860Z" fill="black" stroke="black"/>
<path id="annoyed" d="M705.5 667L689.5 687.5L956.5 944.5L1023 867L705.5 667Z" fill="black" stroke="black"/>
<path id="mad" d="M686 691L658.5 712.5L845 1022L950 949L686 691Z" fill="black" stroke="black"/>
<path id="disappointed" d="M652 717.5L621 727.5L727.5 1073L838 1026L652 717.5Z" fill="black" stroke="black"/>
<path id="sad" d="M616.5 728L589 733L621 1090L721 1075.5L616.5 728Z" fill="black" stroke="black"/>
<path id="unmotivated" d="M585 732.5L554.5 731L492 1085.5L614 1092L585 732.5Z" fill="black" stroke="black"/>
<path id="tired" d="M550 730.5L513 718.5L348 1046L486 1085L550 730.5Z" fill="black" stroke="black"/>
<path id="dread" d="M343 1041.5L217 962.5L476 697L507.5 717L343 1041.5Z" fill="black" stroke="black"/>
<path id="anxious" d="M448.5 666.5L111 839L211 959L473 694.5L448.5 666.5Z" fill="black" stroke="black"/>
<path id="stressed" d="M107 834L60.5 725L428.5 628L445.5 663L107 834Z" fill="black" stroke="black"/>
<path id="overwhelmed" d="M58 718.5L35.5 573L419.5 584L428 624L58 718.5Z" fill="black" stroke="black"/>
<path id="not-good-enough" d="M35 566L53.5 434L424.5 547L420.5 577.5L35 566Z" fill="black" stroke="black"/>
<path id="avoidant" d="M56 428L105 317L438 511.5L426 540.5L56 428Z" fill="black" stroke="black"/>
<path id="jealous" d="M110 311L187 213L459 480.5L440.5 507.5L110 311Z" fill="black" stroke="black"/>
<path id="uncomfortable" d="M192 208L299 129.5L494 453L462 477.5L192 208Z" fill="black" stroke="black"/>
<path id="calm" d="M423.5 76.5L305.5 124.5L501.5 450L531.5 439.5L423.5 76.5Z" fill="black" stroke="black"/>
</g>
</svg>
