<svg id="okay-grey" viewBox="0 0 1150 1121" fill="none" xmlns="http://www.w3.org/2000/svg">
<g id="slices">
<path id="playful" aria-label="playful" d="M682.5 67L556.5 58.5L580.5 425L606 428L682.5 67Z" fill="black" stroke="black"/>
<path id="grateful" aria-label="grateful" d="M811.5 108L689.5 68.5L613 429.5L647.5 441.5L811.5 108Z" fill="black" stroke="black"/>
<path id="curious" aria-label="curious" d="M956.5 202L822 110.5L654.5 444.5L689.5 469L956.5 202Z" fill="black" stroke="black"/>
<path id="confident" aria-label="confident" d="M1048.5 339L960.5 207L691 473L714.5 502.5L1048.5 339Z" fill="black" stroke="black"/>
<path id="creative" aria-label="creative" d="M730 537.5L716 508.5L1051 343L1096.5 456L730 537.5Z" fill="black" stroke="black"/>
<path id="challenged" aria-label="challenged" d="M733.5 571.5L730 543.5L1098 463L1107 583L733.5 571.5Z" fill="black" stroke="black"/>
<path id="tense" aria-label="tense" d="M1080 717L1105.5 589.5L733.5 577.5L729 608L1080 717Z" fill="black" stroke="black"/>
<path id="frustrated" aria-label="frustrated" d="M1077 722.5L1019.5 835.5L713 644.5L727.5 612.5L1077 722.5Z" fill="black" stroke="black"/>
<path id="annoyed" aria-label="annoyed" d="M710.5 649.5L695.5 668.5L952 916L1016 841L710.5 649.5Z" fill="black" stroke="black"/>
<path id="resistant" aria-label="resistant" d="M692 671.5L665 693L845 993L945 920L692 671.5Z" fill="black" stroke="black"/>
<path id="disappointed" aria-label="disappointed" d="M659.5 697L629 707L732.5 1041L838.5 995L659.5 697Z" fill="black" stroke="black"/>
<path id="loss" aria-label="loss" d="M625 708.5L599 712.5L629 1059L726 1043L625 708.5Z" fill="black" stroke="black"/>
<path id="unmotivated" aria-label="unmotivated" d="M593.5 712.5L564.5 711L504.5 1052L622.5 1059L593.5 712.5Z" fill="black" stroke="black"/>
<path id="tired" aria-label="tired" d="M499.5 1050.5L367 1014L525.5 699.5L560.5 710L499.5 1050.5Z" fill="black" stroke="black"/>
<path id="dread" aria-label="dread" d="M363.5 1006.5L243 930L489.5 678L519.5 698L363.5 1006.5Z" fill="black" stroke="black"/>
<path id="anxious" aria-label="anxious" d="M237.5 925.5L138.5 815L463.5 649.5L486 675.5L237.5 925.5Z" fill="black" stroke="black"/>
<path id="stressed" aria-label="stressed" d="M444.5 612L93 704L138.5 808.5L460.5 645.5L444.5 612Z" fill="black" stroke="black"/>
<path id="overwhelmed" aria-label="overwhelmed" d="M436.5 569L64.5 558.5L91 699L442.5 607L436.5 569Z" fill="black" stroke="black"/>
<path id="not-good-enough" aria-label="not-good-enough" d="M64.5 551L83 425.5L439.5 534L436 563.5L64.5 551Z" fill="black" stroke="black"/>
<path id="avoidant" aria-label="avoidant" d="M85 419L132.5 312.5L452 499L441.5 528L85 419Z" fill="black" stroke="black"/>
<path id="jealous" aria-label="jealous" d="M136 306L210.5 211.5L472 470L454 496L136 306Z" fill="black" stroke="black"/>
<path id="uncomfortable" aria-label="uncomfortable" d="M215.5 206.5L316 132.5L506.5 444L476 466.5L215.5 206.5Z" fill="black" stroke="black"/>
<path id="calm" aria-label="calm" d="M323.5 128L437.5 79.5L540.5 432L513.5 440L323.5 128Z" fill="black" stroke="black"/>
<path id="relieved" aria-label="relieved" d="M445 78.5L548 60L572.5 425.5L548.5 428.5L445 78.5Z" fill="black" stroke="black"/>
</g>
</svg>
